<svg id="Capa_1" data-name="Capa 1" xmlns="http://www.w3.org/2000/svg" viewBox="0 0 254.6 167.08" class="imcyc">
  <defs>
    <style>
      .cls-1 {
        fill: #fff;
      }

      .cls-2 {
        fill: #fff;
      }

      .cls-3 {
        fill: none;
        stroke: #fff;
        stroke-width: 1.46px;
      }
    </style>
  </defs>
  <title>logo</title>
  <rect class="cls-1" y="106.85" width="14.6" height="42.23"/>
  <path class="cls-1" d="M33.87,117.14h13.3v7.79h0.16c2.92-6.08,8.75-8.76,15.4-8.76,6,0,10.95,2.59,13.21,8.1,3.4-5.67,9-8.1,15-8.1,12.16,0,14.92,6.89,14.92,18.32v24.89H91.25v-22.7c0-4.78-1.69-8.35-5.84-8.35-5.19,0-8.26,4.13-8.26,13.21v17.83H62.56v-22.7c0-4.78-1.7-8.35-5.84-8.35-5.19,0-8.27,4.13-8.27,13.21v17.83H33.87V117.14Z" transform="translate(-10.84 -10.29)"/>
  <path class="cls-1" d="M148,129.22a16,16,0,0,0-8.83-2.35c-6.33,0-11.19,4.37-11.19,11.67,0,6.74,5.68,11.1,12,11.1a20.11,20.11,0,0,0,9.08-2l0.32,10.86a39.38,39.38,0,0,1-11.9,1.86c-13.94,0-24.56-8.1-24.56-22s10.62-22.13,24.56-22.13A26.16,26.16,0,0,1,149,118.52Z" transform="translate(-10.84 -10.29)"/>
  <path class="cls-1" d="M236.37,129.22a16,16,0,0,0-8.84-2.35c-6.32,0-11.17,4.37-11.17,11.67,0,6.74,5.67,11.1,12,11.1a20.08,20.08,0,0,0,9.07-2l0.33,10.86a39.43,39.43,0,0,1-11.92,1.86c-13.95,0-24.56-8.1-24.56-22s10.62-22.13,24.56-22.13a26.17,26.17,0,0,1,11.59,2.36Z" transform="translate(-10.84 -10.29)"/>
  <path class="cls-1" d="M156.06,165.29a17.63,17.63,0,0,0,5.76.89c3.57,0,6.32-2.11,7.37-5.84l-17.1-43.2h15.73l9.08,27.55h0.16l8.67-27.55h14.59l-15.48,39.31c-4.13,10.62-7.29,20.92-20.67,20.92a42.64,42.64,0,0,1-9.08-1Z" transform="translate(-10.84 -10.29)"/>
  <path class="cls-2" d="M182.3,42.45a16,16,0,0,1,25.24,0l22.61-13.06a42,42,0,0,0-70.46,0Z" transform="translate(-10.84 -10.29)"/>
  <path class="cls-2" d="M192.6,68.28A16,16,0,0,1,180,46.46l-22.6-13a42,42,0,0,0,35.22,61V68.28Z" transform="translate(-10.84 -10.29)"/>
  <path class="cls-1" d="M232.45,33.41l-22.6,13a16,16,0,0,1-12.62,21.83V94.37A42,42,0,0,0,232.45,33.41Z" transform="translate(-10.84 -10.29)"/>
  <path class="cls-3" d="M248.88,122a7.92,7.92,0,1,1,7.91,7.92A7.92,7.92,0,0,1,248.88,122Z" transform="translate(-10.84 -10.29)"/>
  <path class="cls-1" d="M252.58,125.9v-8.36h4.74a7.55,7.55,0,0,1,2,.21,2.14,2.14,0,0,1,1.12.76,2.37,2.37,0,0,1,.1,2.56,2.46,2.46,0,0,1-.9.82,3.65,3.65,0,0,1-1,.33,3,3,0,0,1,.74.31,2.71,2.71,0,0,1,.45.44,3.32,3.32,0,0,1,.4.52l1.38,2.42h-3.21l-1.52-2.56a2,2,0,0,0-.51-0.64,1.28,1.28,0,0,0-.7-0.19h-0.25v3.39h-2.86Zm2.86-5h1.2a4.7,4.7,0,0,0,.75-0.11,0.76,0.76,0,0,0,.46-0.26,0.73,0.73,0,0,0,.18-0.48,0.74,0.74,0,0,0-.28-0.62,1.84,1.84,0,0,0-1.06-.22h-1.25v1.7Z" transform="translate(-10.84 -10.29)"/>
</svg>
